<?xml version="1.0" encoding="UTF-8"?>
<svg width="159px" height="63px" viewBox="0 0 265 105" version="1.1" xmlns="http://www.w3.org/2000/svg" xmlns:xlink="http://www.w3.org/1999/xlink">
    <!-- Generator: Sketch 52.5 (67469) - http://www.bohemiancoding.com/sketch -->
    <title>#24273F - light navy</title>
    <desc>Created with Sketch.</desc>
    <g id="#24273F---light-navy" stroke="none" stroke-width="1" fill="none" fill-rule="evenodd">
        <g id="kite-logo" fill="#24273F">
            <polygon id="Path" points="42.25 41.38 25.33 73.21 62.22 104.72 74.37 57.75 42.25 41.38"></polygon>
            <polygon id="Path" points="29.21 0 0 51.58 22.4 70.71 41.09 37.7 75.34 54.02 82.72 25.5 29.21 0"></polygon>
            <path d="M106.11,6.75 C106.15164,5.39243296 107.242433,4.30164031 108.6,4.26 L116.19,4.26 C117.547567,4.30164031 118.63836,5.39243296 118.68,6.75 L118.68,63.39 L139.09,45.08 C139.954611,44.1789105 141.116158,43.6212261 142.36,43.51 L151.52,43.51 C152.366738,43.4682085 153.147832,43.9647998 153.469263,44.7492705 C153.790694,45.5337412 153.582618,46.4356368 152.95,47 L131.23,66.79 L156.87,92.43 C157.506817,92.9805638 157.715895,93.878996 157.387591,94.6541563 C157.059288,95.4293167 156.268533,95.9042904 155.43,95.83 L144.71,95.83 C143.824664,95.8233438 142.978661,95.4633421 142.36,94.83 L118.67,70.46 L118.67,93.35 C118.62836,94.707567 117.537567,95.7983597 116.18,95.84 L108.6,95.84 C107.242433,95.7983597 106.15164,94.707567 106.11,93.35 L106.11,6.75 Z" id="Path"></path>
            <path d="M159.36,46 C159.40164,44.642433 160.492433,43.5516403 161.85,43.51 L169.31,43.51 C170.659753,43.5619346 171.738952,44.6498725 171.78,46 L171.78,93.35 C171.73836,94.707567 170.647567,95.7983597 169.29,95.84 L161.83,95.84 C160.472433,95.7983597 159.38164,94.707567 159.34,93.35 L159.34,46 L159.36,46 Z M157.92,24.54 C157.863474,22.5207383 158.622803,20.5638462 160.026524,19.111201 C161.430246,17.6585559 163.359987,16.8326581 165.38,16.82 C169.60774,16.82 173.035,20.2472602 173.035,24.475 C173.035,28.7027398 169.60774,32.13 165.38,32.13 C163.380444,32.1248699 161.466183,31.319365 160.064544,29.8933007 C158.662905,28.4672363 157.890588,26.5393464 157.92,24.54 Z" id="Shape" fill-rule="nonzero"></path>
            <path d="M184.34,54.37 L178.85,54.37 C178.188796,54.3726716 177.553901,54.111191 177.086355,53.6436451 C176.618809,53.1760991 176.357328,52.5412044 176.36,51.88 L176.36,46 C176.337464,45.3329574 176.592559,44.6864379 177.064498,44.2144985 C177.536438,43.742559 178.182957,43.4874643 178.85,43.51 L184.34,43.51 L184.34,29 C184.38164,27.642433 185.472433,26.5516403 186.83,26.51 L194.29,26.38 C195.617179,26.439289 196.657525,27.5416127 196.64,28.87 L196.64,43.51 L210,43.51 C210.663623,43.4930999 211.304831,43.7506831 211.772339,44.2219768 C212.239847,44.6932706 212.492251,45.3365344 212.47,46 L212.47,51.89 C212.470011,53.2557704 211.365759,54.3644929 210,54.37 L196.64,54.37 L196.64,80.27 C196.64,84.72 198.34,85.5 200.83,85.5 C203.58,85.5 207.24,83.93 208.83,83.15 C210.42,82.37 211.32,83.15 211.83,84.33 L214.18,90.09 C214.501204,90.6516551 214.555025,91.3273444 214.326783,91.932765 C214.098542,92.5381856 213.612048,93.0101779 213,93.22 C211.69,94.01 204,97.14 197.69,97.14 C187.35,97.14 184.35,90.86 184.35,81.57 L184.35,54.37 L184.34,54.37 Z" id="Path"></path>
            <path d="M252.63,63.92 C252.249292,57.5172488 247.041375,52.465569 240.63,52.28 C233.86157,52.1793549 228.107279,57.2003404 227.29,63.92 L252.63,63.92 Z M240.73,42.2 C254.33,42.2 264.8,52.4 264.8,66.4 C264.778526,67.5805623 264.691726,68.7590313 264.54,69.93 C264.442741,71.1635589 263.427093,72.1230219 262.19,72.15 L226.6,72.15 C227.197982,80.0075962 233.719877,86.0946981 241.6,86.15 C245.757387,85.9961466 249.789033,84.6834371 253.24,82.36 C254.81,81.44 255.73,80.92 256.77,82.23 L260.43,87.23 C261.35,88.23 261.74,89.32 260.17,90.63 C256.38,93.9 249.57,97.17 240.81,97.17 C224.98,97.17 214.51,84.74 214.51,69.7 C214.51,54.92 224.98,42.23 240.67,42.23 L240.73,42.2 Z" id="Shape" fill-rule="nonzero"></path>
        </g>
    </g>
</svg>